<svg width="160" height="32" viewBox="0 0 160 32" fill="none" xmlns="http://www.w3.org/2000/svg">
<g clip-path="url(#clip0_34_2)">
<path d="M11.4977 7.66553C9.22385 7.66553 7.00104 8.33976 5.11034 9.60297C3.21963 10.8662 1.74594 12.6616 0.875592 14.7623C0.00524255 16.863 -0.22268 19.1746 0.220643 21.4049C0.663965 23.6351 1.75862 25.6838 3.36621 27.2919C4.9738 28.9001 7.02213 29.9954 9.25221 30.4395C11.4823 30.8836 13.794 30.6565 15.895 29.7869C17.996 28.9172 19.7919 27.4441 21.0558 25.5539C22.3196 23.6636 22.9946 21.441 22.9954 19.1672C22.9959 17.6569 22.6989 16.1614 22.1213 14.766C21.5438 13.3706 20.6969 12.1026 19.6292 11.0345C18.5615 9.96644 17.2938 9.11917 15.8986 8.54111C14.5034 7.96305 13.0079 7.66553 11.4977 7.66553ZM11.4977 27.6C9.8304 27.5989 8.20083 27.1036 6.815 26.1765C5.42917 25.2495 4.3493 23.9324 3.71191 22.3917C3.07452 20.8511 2.90822 19.156 3.23403 17.5208C3.55985 15.8857 4.36315 14.3838 5.54239 13.2051C6.72163 12.0264 8.22386 11.2238 9.85918 10.8988C11.4945 10.5737 13.1895 10.7408 14.7298 11.3789C16.2702 12.017 17.5868 13.0975 18.5132 14.4838C19.4396 15.8701 19.9342 17.4999 19.9344 19.1672C19.9344 20.2744 19.7163 21.3708 19.2926 22.3938C18.8689 23.4167 18.2478 24.3462 17.4649 25.1291C16.682 25.9121 15.7525 26.5331 14.7295 26.9568C13.7066 27.3806 12.6102 27.5986 11.503 27.5986" fill="white"/>
<path d="M47.882 11.3639C46.313 9.6642 44.2678 8.47724 42.0136 7.95815C39.7594 7.43906 37.4011 7.61198 35.2467 8.45431C33.0923 9.29664 31.2421 10.7692 29.9378 12.6796C28.6335 14.59 27.9358 16.8494 27.9358 19.1626C27.9358 21.4758 28.6335 23.7352 29.9378 25.6456C31.2421 27.556 33.0923 29.0286 35.2467 29.8709C37.4011 30.7133 39.7594 30.8862 42.0136 30.3671C44.2678 29.848 46.313 28.6611 47.882 26.9613V30.278H50.9509V0H47.882V11.3639ZM39.4505 27.5948C37.783 27.5948 36.1528 27.1003 34.7663 26.1738C33.3797 25.2473 32.299 23.9305 31.6609 22.3899C31.0227 20.8492 30.8558 19.1539 31.1811 17.5184C31.5064 15.8828 32.3094 14.3805 33.4886 13.2013C34.6678 12.0222 36.1701 11.2191 37.8057 10.8938C39.4412 10.5685 41.1365 10.7355 42.6771 11.3736C44.2178 12.0118 45.5346 13.0925 46.4611 14.479C47.3875 15.8656 47.882 17.4957 47.882 19.1633C47.882 21.3994 46.9937 23.544 45.4125 25.1252C43.8313 26.7064 41.6867 27.5948 39.4505 27.5948Z" fill="white"/>
<path d="M68.2191 7.66563C66.1457 7.66475 64.1107 8.22452 62.3295 9.2857C60.5482 10.3469 59.0871 11.8699 58.1008 13.6937C57.1145 15.5174 56.6396 17.5739 56.7265 19.6454C56.8135 21.717 57.4589 23.7264 58.5946 25.4611C59.7303 27.1958 61.3139 28.5911 63.1777 29.4993C65.0416 30.4075 67.1164 30.7948 69.1824 30.6202C71.2484 30.4456 73.2287 29.7156 74.9137 28.5075C76.5987 27.2994 77.9257 25.6581 78.7541 23.7574H75.2814C74.3625 25.1696 73.0412 26.2737 71.4884 26.9272C69.9355 27.5807 68.2224 27.7536 66.5703 27.4234C64.9182 27.0933 63.403 26.2753 62.2206 25.0752C61.0381 23.8751 60.2427 22.348 59.9371 20.6912H79.6092C79.84 19.0653 79.7175 17.4087 79.2502 15.8344C78.7829 14.2601 77.9817 12.805 76.9012 11.5683C75.8207 10.3316 74.4863 9.34238 72.989 8.668C71.4916 7.99361 69.8665 7.64994 68.2243 7.66039M59.9384 17.6276C60.2955 15.6908 61.3199 13.9404 62.8335 12.6804C64.347 11.4204 66.2542 10.7304 68.2236 10.7304C70.1931 10.7304 72.1002 11.4204 73.6138 12.6804C75.1274 13.9404 76.1518 15.6908 76.5089 17.6276H59.9384Z" fill="white"/>
<path d="M157.392 19.1671C157.393 16.3201 156.34 13.5735 154.434 11.4583C152.529 9.34308 149.906 8.00951 147.075 7.7154C144.243 7.42128 141.403 8.18751 139.103 9.86594C136.803 11.5444 135.208 14.0158 134.624 16.8024C134.041 19.589 134.512 22.4929 135.945 24.9527C137.379 27.4125 139.673 29.2534 142.385 30.1196C145.098 30.9857 148.034 30.8156 150.628 29.6422C153.222 28.4687 155.289 26.3752 156.429 23.7664H152.956C152.037 25.1785 150.716 26.2827 149.163 26.9362C147.61 27.5897 145.897 27.7625 144.245 27.4324C142.593 27.1023 141.078 26.2843 139.895 25.0842C138.713 23.8841 137.917 22.357 137.612 20.7002H157.284C157.356 20.1922 157.393 19.68 157.397 19.1671M137.613 17.634C137.97 15.6972 138.995 13.9467 140.508 12.6867C142.022 11.4267 143.929 10.7368 145.898 10.7368C147.868 10.7368 149.775 11.4267 151.289 12.6867C152.802 13.9467 153.827 15.6972 154.184 17.634H137.613Z" fill="white"/>
<path d="M120.593 17.095C115.889 16.4013 114.218 15.8137 114.218 13.9016C114.218 11.9344 116.719 10.4419 120.037 10.4419C123.2 10.4419 125.448 11.7914 126.11 14.0655H129.49C128.845 10.0498 125.34 7.66553 120.037 7.66553C113.768 7.66553 110.911 10.9665 110.911 14.0327C110.911 18.0432 114.257 19.2786 120.035 20.0537C125.795 20.7777 126.887 21.9501 126.887 23.857C126.887 25.836 124.694 27.8413 120.505 27.8413C116.921 27.8413 114.142 26.1495 113.486 23.6039H110.123C110.91 27.9672 114.845 30.6596 120.506 30.6596C126.216 30.6596 130.052 27.8386 130.052 23.6393C130.052 18.855 126.132 17.9082 120.594 17.0937" fill="white"/>
<path d="M96.5809 7.66553H93.3993C92.3512 7.74756 91.3352 8.06506 90.4269 8.59437C89.5186 9.12369 88.7414 9.85116 88.1534 10.7226V8.04717H85.0872V30.2518H88.1534V16.0747C88.1575 14.6542 88.7246 13.2933 89.7302 12.2902C90.7359 11.287 92.0982 10.7233 93.5186 10.7226H96.5849C98.0067 10.7233 99.3702 11.288 100.376 12.2929C101.382 13.2978 101.948 14.6608 101.95 16.0826V30.2465H105.016V16.0826C105.016 14.9762 104.797 13.8808 104.373 12.859C103.949 11.8372 103.327 10.9089 102.544 10.1273C101.761 9.34562 100.832 8.7259 99.8095 8.3035C98.787 7.88111 97.6912 7.66433 96.5849 7.66553" fill="white"/>
</g>
<defs>
<clipPath id="clip0_34_2">
<rect width="160" height="31.4754" fill="white"/>
</clipPath>
</defs>
</svg>
