<svg width="30" height="27" viewBox="0 0 30 27" fill="none" xmlns="http://www.w3.org/2000/svg">
<path d="M15.0033 6.44188C10.7468 6.44188 7.31344 9.46884 7.31344 13.2216C7.31344 16.9743 10.7468 20.0012 15.0033 20.0012C19.2599 20.0012 22.6933 16.9743 22.6933 13.2216C22.6933 9.46884 19.2599 6.44188 15.0033 6.44188ZM15.0033 17.6292C12.2526 17.6292 10.0039 15.6526 10.0039 13.2216C10.0039 10.7905 12.246 8.81388 15.0033 8.81388C17.7607 8.81388 20.0028 10.7905 20.0028 13.2216C20.0028 15.6526 17.754 17.6292 15.0033 17.6292ZM24.8015 6.16455C24.8015 7.04373 23.9983 7.74589 23.0078 7.74589C22.0106 7.74589 21.2142 7.03783 21.2142 6.16455C21.2142 5.29128 22.0173 4.58322 23.0078 4.58322C23.9983 4.58322 24.8015 5.29128 24.8015 6.16455ZM29.8946 7.76949C29.7808 5.65121 29.232 3.77485 27.4718 2.22892C25.7183 0.682983 23.5901 0.199142 21.1874 0.092933C18.7111 -0.0309777 11.2889 -0.0309777 8.8126 0.092933C6.41662 0.193242 4.28834 0.677083 2.52817 2.22302C0.767987 3.76895 0.225878 5.64531 0.10541 7.76359C-0.0351366 9.94678 -0.0351366 16.4904 0.10541 18.6736C0.219186 20.7919 0.767987 22.6683 2.52817 24.2142C4.28834 25.7601 6.40993 26.244 8.8126 26.3502C11.2889 26.4741 18.7111 26.4741 21.1874 26.3502C23.5901 26.2499 25.7183 25.766 27.4718 24.2142C29.2253 22.6683 29.7741 20.7919 29.8946 18.6736C30.0351 16.4904 30.0351 9.95268 29.8946 7.76949ZM26.6955 21.0161C26.1735 22.1726 25.1629 23.0636 23.8444 23.5297C21.8701 24.2201 17.1852 24.0608 15.0033 24.0608C12.8215 24.0608 8.12995 24.2142 6.1623 23.5297C4.85053 23.0695 3.83993 22.1785 3.31121 21.0161C2.52817 19.2755 2.70887 15.1451 2.70887 13.2216C2.70887 11.298 2.53486 7.16174 3.31121 5.42699C3.83324 4.27049 4.84384 3.37951 6.1623 2.91337C8.13664 2.22302 12.8215 2.38233 15.0033 2.38233C17.1852 2.38233 21.8767 2.22892 23.8444 2.91337C25.1562 3.37361 26.1668 4.26459 26.6955 5.42699C27.4785 7.16764 27.2978 11.298 27.2978 13.2216C27.2978 15.1451 27.4785 19.2814 26.6955 21.0161Z" fill="#757575"/>
</svg>
