<svg width="203" height="24" viewBox="0 0 203 24" fill="none" xmlns="http://www.w3.org/2000/svg">
<path d="M202.061 13.0607C202.646 12.4749 202.646 11.5251 202.061 10.9393L192.515 1.3934C191.929 0.807612 190.979 0.807612 190.393 1.3934C189.808 1.97918 189.808 2.92893 190.393 3.51472L198.879 12L190.393 20.4853C189.808 21.0711 189.808 22.0208 190.393 22.6066C190.979 23.1924 191.929 23.1924 192.515 22.6066L202.061 13.0607ZM0 13.5H2.95588V10.5H0V13.5ZM8.86765 13.5H14.7794V10.5H8.86765V13.5ZM20.6912 13.5H26.6029V10.5H20.6912V13.5ZM32.5147 13.5H38.4265V10.5H32.5147V13.5ZM44.3382 13.5H50.25V10.5H44.3382V13.5ZM56.1618 13.5H62.0735V10.5H56.1618V13.5ZM67.9853 13.5H73.8971V10.5H67.9853V13.5ZM79.8088 13.5H85.7206V10.5H79.8088V13.5ZM91.6324 13.5H97.5441V10.5H91.6324V13.5ZM103.456 13.5H109.368V10.5H103.456V13.5ZM115.279 13.5H121.191V10.5H115.279V13.5ZM127.103 13.5H133.015V10.5H127.103V13.5ZM138.926 13.5H144.838V10.5H138.926V13.5ZM150.75 13.5H156.662V10.5H150.75V13.5ZM162.574 13.5H168.485V10.5H162.574V13.5ZM174.397 13.5H180.309V10.5H174.397V13.5ZM186.221 13.5H192.132V10.5H186.221V13.5ZM198.044 13.5H201V10.5H198.044V13.5Z" fill="black"/>
</svg>
