<svg width="250" height="96" viewBox="0 0 250 96" fill="none" xmlns="http://www.w3.org/2000/svg">
<path d="M227.061 49.0607C227.646 48.4749 227.646 47.5251 227.061 46.9393L217.515 37.3934C216.929 36.8076 215.979 36.8076 215.393 37.3934C214.808 37.9792 214.808 38.9289 215.393 39.5147L223.879 48L215.393 56.4853C214.808 57.0711 214.808 58.0208 215.393 58.6066C215.979 59.1924 216.929 59.1924 217.515 58.6066L227.061 49.0607ZM25 49.5H27.9559V46.5H25V49.5ZM33.8676 49.5H39.7794V46.5H33.8676V49.5ZM45.6912 49.5H51.6029V46.5H45.6912V49.5ZM57.5147 49.5H63.4265V46.5H57.5147V49.5ZM69.3382 49.5H75.25V46.5H69.3382V49.5ZM81.1618 49.5H87.0735V46.5H81.1618V49.5ZM92.9853 49.5H98.8971V46.5H92.9853V49.5ZM104.809 49.5H110.721V46.5H104.809V49.5ZM116.632 49.5H122.544V46.5H116.632V49.5ZM128.456 49.5H134.368V46.5H128.456V49.5ZM140.279 49.5H146.191V46.5H140.279V49.5ZM152.103 49.5H158.015V46.5H152.103V49.5ZM163.926 49.5H169.838V46.5H163.926V49.5ZM175.75 49.5H181.662V46.5H175.75V49.5ZM187.574 49.5H193.485V46.5H187.574V49.5ZM199.397 49.5H205.309V46.5H199.397V49.5ZM211.221 49.5H217.132V46.5H211.221V49.5ZM223.044 49.5H226V46.5H223.044V49.5Z" fill="#353535"/>
</svg>
