<svg width="122" height="24" viewBox="0 0 122 24" fill="none" xmlns="http://www.w3.org/2000/svg">
<path d="M121.061 13.0607C121.646 12.4749 121.646 11.5251 121.061 10.9393L111.515 1.3934C110.929 0.807612 109.979 0.807612 109.393 1.3934C108.808 1.97918 108.808 2.92893 109.393 3.51472L117.879 12L109.393 20.4853C108.808 21.0711 108.808 22.0208 109.393 22.6066C109.979 23.1924 110.929 23.1924 111.515 22.6066L121.061 13.0607ZM0 13.5H3V10.5H0V13.5ZM9 13.5H15V10.5H9V13.5ZM21 13.5H27V10.5H21V13.5ZM33 13.5H39V10.5H33V13.5ZM45 13.5H51V10.5H45V13.5ZM57 13.5H63V10.5H57V13.5ZM69 13.5H75V10.5H69V13.5ZM81 13.5H87V10.5H81V13.5ZM93 13.5H99V10.5H93V13.5ZM105 13.5H111V10.5H105V13.5ZM117 13.5H120V10.5H117V13.5Z" fill="black"/>
</svg>
