<svg width="250" height="96" viewBox="0 0 250 96" fill="none" xmlns="http://www.w3.org/2000/svg">
<path d="M146.061 49.0607C146.646 48.4749 146.646 47.5251 146.061 46.9393L136.515 37.3934C135.929 36.8076 134.979 36.8076 134.393 37.3934C133.808 37.9792 133.808 38.9289 134.393 39.5147L142.879 48L134.393 56.4853C133.808 57.0711 133.808 58.0208 134.393 58.6066C134.979 59.1924 135.929 59.1924 136.515 58.6066L146.061 49.0607ZM25 49.5H28V46.5H25V49.5ZM34 49.5H40V46.5H34V49.5ZM46 49.5H52V46.5H46V49.5ZM58 49.5H64V46.5H58V49.5ZM70 49.5H76V46.5H70V49.5ZM82 49.5H88V46.5H82V49.5ZM94 49.5H100V46.5H94V49.5ZM106 49.5H112V46.5H106V49.5ZM118 49.5H124V46.5H118V49.5ZM130 49.5H136V46.5H130V49.5ZM142 49.5H145V46.5H142V49.5Z" fill="#353535"/>
</svg>
