<svg width="40" height="27" viewBox="0 0 40 27" fill="none" xmlns="http://www.w3.org/2000/svg">
<path d="M39.1642 4.13745C38.7041 2.50886 37.3487 1.22623 35.6277 0.790952C32.5084 0 20 0 20 0C20 0 7.49171 0 4.37226 0.790952C2.65129 1.2263 1.29587 2.50886 0.835839 4.13745C0 7.08937 0 13.2483 0 13.2483C0 13.2483 0 19.4072 0.835839 22.3591C1.29587 23.9877 2.65129 25.2169 4.37226 25.6522C7.49171 26.4431 20 26.4431 20 26.4431C20 26.4431 32.5083 26.4431 35.6277 25.6522C37.3487 25.2169 38.7041 23.9877 39.1642 22.3591C40 19.4072 40 13.2483 40 13.2483C40 13.2483 40 7.08937 39.1642 4.13745ZM15.9091 18.8401V7.65645L26.3636 13.2484L15.9091 18.8401Z" fill="#757575"/>
</svg>
